<svg width="23" height="19" viewBox="0 0 23 19" fill="none" xmlns="http://www.w3.org/2000/svg">
<path d="M11.5163 9.18182C11.5163 10.4091 11.2947 11.4697 10.8516 12.3636C10.4084 13.2576 9.80043 13.947 9.0277 14.4318C8.25497 14.9167 7.3724 15.1591 6.37997 15.1591C5.38755 15.1591 4.50497 14.9167 3.73224 14.4318C2.95952 13.947 2.35156 13.2576 1.90838 12.3636C1.4652 11.4697 1.24361 10.4091 1.24361 9.18182C1.24361 7.95455 1.4652 6.89394 1.90838 6C2.35156 5.10606 2.95952 4.41667 3.73224 3.93182C4.50497 3.44697 5.38755 3.20455 6.37997 3.20455C7.3724 3.20455 8.25497 3.44697 9.0277 3.93182C9.80043 4.41667 10.4084 5.10606 10.8516 6C11.2947 6.89394 11.5163 7.95455 11.5163 9.18182ZM10.1527 9.18182C10.1527 8.17424 9.98414 7.32386 9.64702 6.63068C9.31368 5.9375 8.86103 5.41288 8.28906 5.05682C7.72088 4.70076 7.08452 4.52273 6.37997 4.52273C5.67543 4.52273 5.03717 4.70076 4.4652 5.05682C3.89702 5.41288 3.44437 5.9375 3.10724 6.63068C2.77391 7.32386 2.60724 8.17424 2.60724 9.18182C2.60724 10.1894 2.77391 11.0398 3.10724 11.733C3.44437 12.4261 3.89702 12.9508 4.4652 13.3068C5.03717 13.6629 5.67543 13.8409 6.37997 13.8409C7.08452 13.8409 7.72088 13.6629 8.28906 13.3068C8.86103 12.9508 9.31368 12.4261 9.64702 11.733C9.98414 11.0398 10.1527 10.1894 10.1527 9.18182ZM13.8857 15V3.36364H17.8175C18.7266 3.36364 19.4728 3.51894 20.0561 3.82955C20.6394 4.13636 21.0713 4.55871 21.3516 5.09659C21.6319 5.63447 21.772 6.24621 21.772 6.93182C21.772 7.61742 21.6319 8.22538 21.3516 8.75568C21.0713 9.28598 20.6413 9.70265 20.0618 10.0057C19.4822 10.3049 18.7417 10.4545 17.8402 10.4545H14.6584V9.18182H17.7947C18.416 9.18182 18.916 9.09091 19.2947 8.90909C19.6773 8.72727 19.9538 8.4697 20.1243 8.13636C20.2985 7.79924 20.3857 7.39773 20.3857 6.93182C20.3857 6.46591 20.2985 6.05871 20.1243 5.71023C19.95 5.36174 19.6716 5.0928 19.2891 4.90341C18.9065 4.71023 18.4008 4.61364 17.772 4.61364H15.2947V15H13.8857ZM19.3629 9.77273L22.2266 15H20.5902L17.772 9.77273H19.3629Z" fill="white"/>
</svg>
